# xmcd
#
# Track frame offsets: 
#        150
#        25916
#        54027
#        74124
#        97040
#        116193
#        137533
#        154243
#        180089
#        203690
#
# Disc length: 3041 seconds
#
# Revision: 0
# Processed by: cddbd v1.5.2PL0 Copyright (c) Steve Scherf et al.
# Submitted via: ExactAudioCopy v1.0b3
#
DISCID=840bdf0a
DTITLE=Anh Le, VA - Tieng Hat Khoi Suong
DYEAR=1900
DGENRE=
TTITLE0=Tuan Anh - Bai buon cho em
TTITLE1=Anh Le, Le Toan - Mot loai chim bien
TTITLE2=Anh Le - Tieng hat khoi suong
TTITLE3=Giao Linh - Kho tam (Dang do)
TTITLE4=Anh Le - Tango di vang
TTITLE5=Tuan Vu - Bo pho len rung
TTITLE6=Anh Le - Mua thu ay nay con dau
TTITLE7=Anh Le, Le Toan - Sao roi tren bien
TTITLE8=Tuan Anh - Goi buon
TTITLE9=Anh Le - Nguoi tinh va mua thu (Chieu qua pho)
EXTD=
EXTT0=
EXTT1=
EXTT2=
EXTT3=
EXTT4=
EXTT5=
EXTT6=
EXTT7=
EXTT8=
EXTT9=
PLAYORDER=
